# xmcd
#
# Track frame offsets:
#	150
#	23113
#	36445
#	50918
#	70985
#	86563
#	99345
#	119058
#	130788
#	145150
#
# Disc length: 2067 seconds
#
# Revision: 2
# Processed by: cddbd v1.5.2PL0 Copyright (c) Steve Scherf et al.
# Submitted via: EasyCDDAExtractor 12.0.1.1
#
DISCID=9108110a
DTITLE=G. Thomas - Special Tour Collection
DYEAR=1991
DGENRE=Country
TTITLE0=Come On Joe
TTITLE1=I Need You Tonight
TTITLE2=Simple Things In Life
TTITLE3=Tear-Stained Letter
TTITLE4=There's A Chance For Me
TTITLE5=Road Scholar
TTITLE6=All The Love I Have For You
TTITLE7=I Get Along With You
TTITLE8=You Were A Good Friend
TTITLE9=No Two Ways
EXTD=
EXTT0=
EXTT1=
EXTT2=
EXTT3=
EXTT4=
EXTT5=
EXTT6=
EXTT7=
EXTT8=
EXTT9=
PLAYORDER=
